# xmcd CD database file
#
# Track frame offsets:
#	150
#	7589
#	28681
#	47872
#	71416
#	78353
#	111922
#	122507
#	139892
#	161159
#
# Disc length: 2548 seconds
#
# Revision: 1
# Processed by: cddbd v1.5.1PL2 Copyright (c) Steve Scherf et al.
# Submitted via: CDex 1.51
#
DISCID=7b09f20a
DTITLE=Michael Angero - Planet Gemini
DYEAR=1900
DGENRE=Rock
TTITLE0=All Systems Go...
TTITLE1=Planet Gemini
TTITLE2=Far Reaches of Space
TTITLE3=Across Our Universe
TTITLE4=No Boundaries Part 2 - Intro
TTITLE5=No Boundaries Part 2 - Jam Game
TTITLE6=To Alpha Sector 2
TTITLE7=So Much to Live For
TTITLE8=These Four Walls
TTITLE9=Time Traveler
EXTD=
EXTT0=
EXTT1=
EXTT2=
EXTT3=
EXTT4=
EXTT5=
EXTT6=
EXTT7=
EXTT8=
EXTT9=
PLAYORDER=
